{
    "accessors" : [
        {
            "bufferView" : 0, 
            "componentType" : 5121, 
            "count" : 12, 
            "max" : [
                30
            ], 
            "min" : [
                0
            ], 
            "type" : "SCALAR"
        }, 
        {
            "bufferView" : 1, 
            "componentType" : 5126, 
            "count" : 48, 
            "max" : [
                26.907638549804688, 
                1.5, 
                1.0
            ], 
            "min" : [
                -1.0000001192092896, 
                0.0, 
                -1.0
            ], 
            "type" : "VEC3"
        }, 
        {
            "bufferView" : 2, 
            "componentType" : 5126, 
            "count" : 48, 
            "max" : [
                1.0, 
                0.8944271802902222, 
                1.0
            ], 
            "min" : [
                -1.0, 
                -1.0, 
                -1.0
            ], 
            "type" : "VEC3"
        }, 
        {
            "bufferView" : 3, 
            "componentType" : 5121, 
            "count" : 78, 
            "max" : [
                47
            ], 
            "min" : [
                4
            ], 
            "type" : "SCALAR"
        }, 
        {
            "bufferView" : 4, 
            "componentType" : 5126, 
            "count" : 48, 
            "max" : [
                26.907638549804688, 
                1.5, 
                1.0
            ], 
            "min" : [
                -1.0000001192092896, 
                0.0, 
                -1.0
            ], 
            "type" : "VEC3"
        }, 
        {
            "bufferView" : 5, 
            "componentType" : 5126, 
            "count" : 48, 
            "max" : [
                1.0, 
                0.8944271802902222, 
                1.0
            ], 
            "min" : [
                -1.0, 
                -1.0, 
                -1.0
            ], 
            "type" : "VEC3"
        }, 
        {
            "bufferView" : 6, 
            "componentType" : 5121, 
            "count" : 84, 
            "max" : [
                43
            ], 
            "min" : [
                0
            ], 
            "type" : "SCALAR"
        }, 
        {
            "bufferView" : 7, 
            "componentType" : 5126, 
            "count" : 44, 
            "max" : [
                35.0, 
                1.72517056196142e-10, 
                1024.04296875
            ], 
            "min" : [
                -50.0, 
                -4.998015779023035e-09, 
                -1024.04296875
            ], 
            "type" : "VEC3"
        }, 
        {
            "bufferView" : 8, 
            "componentType" : 5126, 
            "count" : 44, 
            "max" : [
                0.0, 
                1.0, 
                -0.0
            ], 
            "min" : [
                -1.083626036124663e-10, 
                0.9999999403953552, 
                -0.0
            ], 
            "type" : "VEC3"
        }, 
        {
            "bufferView" : 9, 
            "componentType" : 5121, 
            "count" : 204, 
            "max" : [
                149
            ], 
            "min" : [
                0
            ], 
            "type" : "SCALAR"
        }, 
        {
            "bufferView" : 10, 
            "componentType" : 5126, 
            "count" : 150, 
            "max" : [
                2.334986925125122, 
                151.0849609375, 
                2.6962106227874756
            ], 
            "min" : [
                -2.334986925125122, 
                0.0, 
                -2.6962106227874756
            ], 
            "type" : "VEC3"
        }, 
        {
            "bufferView" : 11, 
            "componentType" : 5126, 
            "count" : 150, 
            "max" : [
                1.0, 
                1.0, 
                0.8685747385025024
            ], 
            "min" : [
                -1.0, 
                -1.0, 
                -0.866025447845459
            ], 
            "type" : "VEC3"
        }, 
        {
            "bufferView" : 12, 
            "componentType" : 5121, 
            "count" : 18, 
            "max" : [
                97
            ], 
            "min" : [
                82
            ], 
            "type" : "SCALAR"
        }, 
        {
            "bufferView" : 13, 
            "componentType" : 5126, 
            "count" : 150, 
            "max" : [
                2.334986925125122, 
                151.0849609375, 
                2.6962106227874756
            ], 
            "min" : [
                -2.334986925125122, 
                0.0, 
                -2.6962106227874756
            ], 
            "type" : "VEC3"
        }, 
        {
            "bufferView" : 14, 
            "componentType" : 5126, 
            "count" : 150, 
            "max" : [
                1.0, 
                1.0, 
                0.8685747385025024
            ], 
            "min" : [
                -1.0, 
                -1.0, 
                -0.866025447845459
            ], 
            "type" : "VEC3"
        }, 
        {
            "bufferView" : 15, 
            "componentType" : 5121, 
            "count" : 36, 
            "max" : [
                125
            ], 
            "min" : [
                102
            ], 
            "type" : "SCALAR"
        }, 
        {
            "bufferView" : 16, 
            "componentType" : 5126, 
            "count" : 150, 
            "max" : [
                2.334986925125122, 
                151.0849609375, 
                2.6962106227874756
            ], 
            "min" : [
                -2.334986925125122, 
                0.0, 
                -2.6962106227874756
            ], 
            "type" : "VEC3"
        }, 
        {
            "bufferView" : 17, 
            "componentType" : 5126, 
            "count" : 150, 
            "max" : [
                1.0, 
                1.0, 
                0.8685747385025024
            ], 
            "min" : [
                -1.0, 
                -1.0, 
                -0.866025447845459
            ], 
            "type" : "VEC3"
        }
    ], 
    "asset" : {
        "generator" : "Khronos Blender glTF 2.0 exporter", 
        "version" : "2.0"
    }, 
    "bufferViews" : [
        {
            "buffer" : 0, 
            "byteLength" : 12, 
            "byteOffset" : 0, 
            "target" : 34963
        }, 
        {
            "buffer" : 0, 
            "byteLength" : 576, 
            "byteOffset" : 12, 
            "target" : 34962
        }, 
        {
            "buffer" : 0, 
            "byteLength" : 576, 
            "byteOffset" : 588, 
            "target" : 34962
        }, 
        {
            "buffer" : 0, 
            "byteLength" : 78, 
            "byteOffset" : 1164, 
            "target" : 34963
        }, 
        {
            "buffer" : 0, 
            "byteLength" : 576, 
            "byteOffset" : 1244, 
            "target" : 34962
        }, 
        {
            "buffer" : 0, 
            "byteLength" : 576, 
            "byteOffset" : 1820, 
            "target" : 34962
        }, 
        {
            "buffer" : 0, 
            "byteLength" : 84, 
            "byteOffset" : 2396, 
            "target" : 34963
        }, 
        {
            "buffer" : 0, 
            "byteLength" : 528, 
            "byteOffset" : 2480, 
            "target" : 34962
        }, 
        {
            "buffer" : 0, 
            "byteLength" : 528, 
            "byteOffset" : 3008, 
            "target" : 34962
        }, 
        {
            "buffer" : 0, 
            "byteLength" : 204, 
            "byteOffset" : 3536, 
            "target" : 34963
        }, 
        {
            "buffer" : 0, 
            "byteLength" : 1800, 
            "byteOffset" : 3740, 
            "target" : 34962
        }, 
        {
            "buffer" : 0, 
            "byteLength" : 1800, 
            "byteOffset" : 5540, 
            "target" : 34962
        }, 
        {
            "buffer" : 0, 
            "byteLength" : 18, 
            "byteOffset" : 7340, 
            "target" : 34963
        }, 
        {
            "buffer" : 0, 
            "byteLength" : 1800, 
            "byteOffset" : 7360, 
            "target" : 34962
        }, 
        {
            "buffer" : 0, 
            "byteLength" : 1800, 
            "byteOffset" : 9160, 
            "target" : 34962
        }, 
        {
            "buffer" : 0, 
            "byteLength" : 36, 
            "byteOffset" : 10960, 
            "target" : 34963
        }, 
        {
            "buffer" : 0, 
            "byteLength" : 1800, 
            "byteOffset" : 10996, 
            "target" : 34962
        }, 
        {
            "buffer" : 0, 
            "byteLength" : 1800, 
            "byteOffset" : 12796, 
            "target" : 34962
        }
    ], 
    "buffers" : [
        {
            "byteLength" : 14596, 
            "uri" : "data:application/octet-stream;base64,"
        }
    ], 
    "materials" : [
        {
            "name" : "Material_door", 
            "pbrMetallicRoughness" : {
                "baseColorFactor" : [
                    0.10577819496393204, 
                    0.10577819496393204, 
                    0.10577819496393204, 
                    1.0
                ]
            }
        }, 
        {
            "name" : "Material_hangar", 
            "pbrMetallicRoughness" : {}
        }, 
        {
            "name" : "Material_taxiway", 
            "pbrMetallicRoughness" : {
                "baseColorFactor" : [
                    0.0949999988079071, 
                    0.0949999988079071, 
                    0.0949999988079071, 
                    1.0
                ]
            }
        }, 
        {
            "name" : "Material_tower", 
            "pbrMetallicRoughness" : {
                "baseColorFactor" : [
                    0.10000000149011612, 
                    0.10000000149011612, 
                    0.10000000149011612, 
                    1.0
                ]
            }
        }, 
        {
            "name" : "Material_tower_roof", 
            "pbrMetallicRoughness" : {
                "baseColorFactor" : [
                    0.05612849444150925, 
                    0.15592645108699799, 
                    1.0, 
                    1.0
                ]
            }
        }, 
        {
            "emissiveFactor" : [
                1.0, 
                1.0, 
                1.0
            ], 
            "name" : "Material_tower_windows", 
            "pbrMetallicRoughness" : {
                "baseColorFactor" : [
                    0.18782074749469757, 
                    0.2746773064136505, 
                    1.0, 
                    1.0
                ]
            }
        }
    ], 
    "meshes" : [
        {
            "name" : "Cube.001", 
            "primitives" : [
                {
                    "attributes" : {
                        "NORMAL" : 2, 
                        "POSITION" : 1
                    }, 
                    "indices" : 0, 
                    "material" : 0
                }, 
                {
                    "attributes" : {
                        "NORMAL" : 5, 
                        "POSITION" : 4
                    }, 
                    "indices" : 3, 
                    "material" : 1
                }
            ]
        }, 
        {
            "name" : "Plane", 
            "primitives" : [
                {
                    "attributes" : {
                        "NORMAL" : 8, 
                        "POSITION" : 7
                    }, 
                    "indices" : 6, 
                    "material" : 2
                }
            ]
        }, 
        {
            "name" : "Circle", 
            "primitives" : [
                {
                    "attributes" : {
                        "NORMAL" : 11, 
                        "POSITION" : 10
                    }, 
                    "indices" : 9, 
                    "material" : 3
                }, 
                {
                    "attributes" : {
                        "NORMAL" : 14, 
                        "POSITION" : 13
                    }, 
                    "indices" : 12, 
                    "material" : 4
                }, 
                {
                    "attributes" : {
                        "NORMAL" : 17, 
                        "POSITION" : 16
                    }, 
                    "indices" : 15, 
                    "material" : 5
                }
            ]
        }
    ], 
    "nodes" : [
        {
            "mesh" : 2, 
            "name" : "Circle", 
            "scale" : [
                10.0, 
                1.0, 
                10.0
            ], 
            "translation" : [
                106.07119750976562, 
                0.0, 
                -248.76678466796875
            ]
        }, 
        {
            "mesh" : 0, 
            "name" : "Hangar", 
            "scale" : [
                1.0, 
                25.0, 
                75.0
            ], 
            "translation" : [
                80.7059326171875, 
                0.0, 
                -0.0
            ]
        }, 
        {
            "mesh" : 1, 
            "name" : "Taxiway", 
            "translation" : [
                50.0, 
                0.0, 
                -0.0
            ]
        }
    ], 
    "scene" : 0, 
    "scenes" : [
        {
            "name" : "Scene", 
            "nodes" : [
                0, 
                1, 
                2
            ]
        }
    ]
}
