{
    "accessors" : [
        {
            "bufferView" : 0, 
            "componentType" : 5123, 
            "count" : 684, 
            "max" : [
                1259
            ], 
            "min" : [
                1024
            ], 
            "type" : "SCALAR"
        }, 
        {
            "bufferView" : 1, 
            "componentType" : 5126, 
            "count" : 1890, 
            "max" : [
                5.841822624206543, 
                3.16971755027771, 
                1.1698704957962036
            ], 
            "min" : [
                -5.841822624206543, 
                -3.227733850479126, 
                -1.1408690214157104
            ], 
            "type" : "VEC3"
        }, 
        {
            "bufferView" : 2, 
            "componentType" : 5126, 
            "count" : 1890, 
            "max" : [
                1.0, 
                1.0, 
                1.0
            ], 
            "min" : [
                -1.0, 
                -1.0, 
                -0.9971007108688354
            ], 
            "type" : "VEC3"
        }, 
        {
            "bufferView" : 3, 
            "componentType" : 5123, 
            "count" : 5910, 
            "max" : [
                1889
            ], 
            "min" : [
                0
            ], 
            "type" : "SCALAR"
        }, 
        {
            "bufferView" : 4, 
            "componentType" : 5126, 
            "count" : 1890, 
            "max" : [
                5.841822624206543, 
                3.16971755027771, 
                1.1698704957962036
            ], 
            "min" : [
                -5.841822624206543, 
                -3.227733850479126, 
                -1.1408690214157104
            ], 
            "type" : "VEC3"
        }, 
        {
            "bufferView" : 5, 
            "componentType" : 5126, 
            "count" : 1890, 
            "max" : [
                1.0, 
                1.0, 
                1.0
            ], 
            "min" : [
                -1.0, 
                -1.0, 
                -0.9971007108688354
            ], 
            "type" : "VEC3"
        }
    ], 
    "asset" : {
        "generator" : "Khronos Blender glTF 2.0 exporter", 
        "version" : "2.0"
    }, 
    "bufferViews" : [
        {
            "buffer" : 0, 
            "byteLength" : 1368, 
            "byteOffset" : 0, 
            "target" : 34963
        }, 
        {
            "buffer" : 0, 
            "byteLength" : 22680, 
            "byteOffset" : 1368, 
            "target" : 34962
        }, 
        {
            "buffer" : 0, 
            "byteLength" : 22680, 
            "byteOffset" : 24048, 
            "target" : 34962
        }, 
        {
            "buffer" : 0, 
            "byteLength" : 11820, 
            "byteOffset" : 46728, 
            "target" : 34963
        }, 
        {
            "buffer" : 0, 
            "byteLength" : 22680, 
            "byteOffset" : 58548, 
            "target" : 34962
        }, 
        {
            "buffer" : 0, 
            "byteLength" : 22680, 
            "byteOffset" : 81228, 
            "target" : 34962
        }
    ], 
    "buffers" : [
        {
            "byteLength" : 103908, 
            "uri" : "play_button.bin"
        }
    ], 
    "extensionsRequired" : [
        "KHR_materials_pbrSpecularGlossiness"
    ], 
    "extensionsUsed" : [
        "KHR_materials_pbrSpecularGlossiness"
    ], 
    "materials" : [
        {
            "extensions" : {
                "KHR_materials_pbrSpecularGlossiness" : {}
            }, 
            "name" : "Material.001"
        }, 
        {
            "extensions" : {
                "KHR_materials_pbrSpecularGlossiness" : {
                    "diffuseFactor" : [
                        0.0, 
                        0.17788845300674438, 
                        0.0, 
                        1.0
                    ]
                }
            }, 
            "name" : "Material.002"
        }
    ], 
    "meshes" : [
        {
            "name" : "Cube.001", 
            "primitives" : [
                {
                    "attributes" : {
                        "NORMAL" : 2, 
                        "POSITION" : 1
                    }, 
                    "indices" : 0, 
                    "material" : 0
                }, 
                {
                    "attributes" : {
                        "NORMAL" : 5, 
                        "POSITION" : 4
                    }, 
                    "indices" : 3, 
                    "material" : 1
                }
            ]
        }
    ], 
    "nodes" : [
        {
            "mesh" : 0, 
            "name" : "play_button", 
            "translation" : [
                -0.03546968102455139, 
                3.559030771255493, 
                8.08629067705624e-07
            ]
        }
    ], 
    "scene" : 0, 
    "scenes" : [
        {
            "name" : "Scene", 
            "nodes" : [
                0
            ]
        }
    ]
}
