{
    "accessors" : [
        {
            "bufferView" : 0, 
            "componentType" : 5123, 
            "count" : 3828, 
            "max" : [
                927
            ], 
            "min" : [
                0
            ], 
            "type" : "SCALAR"
        }, 
        {
            "bufferView" : 1, 
            "componentType" : 5126, 
            "count" : 928, 
            "max" : [
                1.0369796752929688, 
                1.0018489360809326, 
                1.0369797945022583
            ], 
            "min" : [
                -1.0369797945022583, 
                -1.0018489360809326, 
                -1.0369797945022583
            ], 
            "type" : "VEC3"
        }, 
        {
            "bufferView" : 2, 
            "componentType" : 5126, 
            "count" : 928, 
            "max" : [
                1.0, 
                0.999664306640625, 
                1.0
            ], 
            "min" : [
                -1.0, 
                -0.999664306640625, 
                -1.0
            ], 
            "type" : "VEC3"
        }, 
        {
            "bufferView" : 3, 
            "componentType" : 5123, 
            "count" : 768, 
            "max" : [
                834
            ], 
            "min" : [
                65
            ], 
            "type" : "SCALAR"
        }, 
        {
            "bufferView" : 4, 
            "componentType" : 5126, 
            "count" : 928, 
            "max" : [
                1.0369796752929688, 
                1.0018489360809326, 
                1.0369797945022583
            ], 
            "min" : [
                -1.0369797945022583, 
                -1.0018489360809326, 
                -1.0369797945022583
            ], 
            "type" : "VEC3"
        }, 
        {
            "bufferView" : 5, 
            "componentType" : 5126, 
            "count" : 928, 
            "max" : [
                1.0, 
                0.999664306640625, 
                1.0
            ], 
            "min" : [
                -1.0, 
                -0.999664306640625, 
                -1.0
            ], 
            "type" : "VEC3"
        }
    ], 
    "asset" : {
        "generator" : "Khronos Blender glTF 2.0 exporter", 
        "version" : "2.0"
    }, 
    "bufferViews" : [
        {
            "buffer" : 0, 
            "byteLength" : 7656, 
            "byteOffset" : 0, 
            "target" : 34963
        }, 
        {
            "buffer" : 0, 
            "byteLength" : 11136, 
            "byteOffset" : 7656, 
            "target" : 34962
        }, 
        {
            "buffer" : 0, 
            "byteLength" : 11136, 
            "byteOffset" : 18792, 
            "target" : 34962
        }, 
        {
            "buffer" : 0, 
            "byteLength" : 1536, 
            "byteOffset" : 29928, 
            "target" : 34963
        }, 
        {
            "buffer" : 0, 
            "byteLength" : 11136, 
            "byteOffset" : 31464, 
            "target" : 34962
        }, 
        {
            "buffer" : 0, 
            "byteLength" : 11136, 
            "byteOffset" : 42600, 
            "target" : 34962
        }
    ], 
    "buffers" : [
        {
            "byteLength" : 53736, 
            "uri" : "data:application/octet-stream;base64,"
        }
    ], 
    "materials" : [
        {
            "emissiveFactor" : [
                0.0, 
                0.0, 
                0.75
            ], 
            "name" : "Material", 
            "pbrMetallicRoughness" : {
                "baseColorFactor" : [
                    0.0, 
                    1.297033236369316e-08, 
                    0.09873847663402557, 
                    1.0
                ], 
                "metallicFactor" : 0.5, 
                "roughnessFactor" : 0.5
            }
        }, 
        {
            "emissiveFactor" : [
                0.0, 
                1.1529184718028773e-08, 
                0.075322225689888
            ], 
            "name" : "Material.001", 
            "pbrMetallicRoughness" : {
                "baseColorFactor" : [
                    0.0, 
                    1.0088037072364386e-08, 
                    0.06911885738372803, 
                    1.0
                ], 
                "metallicFactor" : 0.5, 
                "roughnessFactor" : 0.5
            }
        }
    ], 
    "meshes" : [
        {
            "name" : "Cylinder", 
            "primitives" : [
                {
                    "attributes" : {
                        "NORMAL" : 2, 
                        "POSITION" : 1
                    }, 
                    "indices" : 0, 
                    "material" : 0
                }, 
                {
                    "attributes" : {
                        "NORMAL" : 5, 
                        "POSITION" : 4
                    }, 
                    "indices" : 3, 
                    "material" : 1
                }
            ]
        }
    ], 
    "nodes" : [
        {
            "mesh" : 0, 
            "name" : "Cylinder", 
            "scale" : [
                1.0, 
                1.375, 
                1.0
            ]
        }
    ], 
    "scene" : 0, 
    "scenes" : [
        {
            "name" : "Scene", 
            "nodes" : [
                0
            ]
        }
    ]
}
