{
    "accessors" : [
        {
            "bufferView" : 0, 
            "componentType" : 5121, 
            "count" : 372, 
            "max" : [
                63
            ], 
            "min" : [
                0
            ], 
            "type" : "SCALAR"
        }, 
        {
            "bufferView" : 1, 
            "componentType" : 5126, 
            "count" : 64, 
            "max" : [
                1.0, 
                3.0, 
                1.0000001192092896
            ], 
            "min" : [
                -1.0, 
                -3.0, 
                -1.0000001192092896
            ], 
            "type" : "VEC3"
        }, 
        {
            "bufferView" : 2, 
            "componentType" : 5126, 
            "count" : 64, 
            "max" : [
                0.7278664708137512, 
                0.6856898665428162, 
                0.7278664708137512
            ], 
            "min" : [
                -0.7278664708137512, 
                -0.6856898665428162, 
                -0.7278664708137512
            ], 
            "type" : "VEC3"
        }, 
        {
            "bufferView" : 3, 
            "componentType" : 5121, 
            "count" : 96, 
            "max" : [
                32
            ], 
            "min" : [
                0
            ], 
            "type" : "SCALAR"
        }, 
        {
            "bufferView" : 4, 
            "componentType" : 5126, 
            "count" : 33, 
            "max" : [
                1.4613425731658936, 
                1.4613425731658936, 
                1.461342453956604
            ], 
            "min" : [
                -1.4613425731658936, 
                -1.461342692375183, 
                -1.461342692375183
            ], 
            "type" : "VEC3"
        }, 
        {
            "bufferView" : 5, 
            "componentType" : 5126, 
            "count" : 33, 
            "max" : [
                0.8944059610366821, 
                1.0, 
                0.8944059610366821
            ], 
            "min" : [
                -0.8944059610366821, 
                0.44718772172927856, 
                -0.8944059610366821
            ], 
            "type" : "VEC3"
        }
    ], 
    "asset" : {
        "generator" : "Khronos Blender glTF 2.0 exporter", 
        "version" : "2.0"
    }, 
    "bufferViews" : [
        {
            "buffer" : 0, 
            "byteLength" : 372, 
            "byteOffset" : 0, 
            "target" : 34963
        }, 
        {
            "buffer" : 0, 
            "byteLength" : 768, 
            "byteOffset" : 372, 
            "target" : 34962
        }, 
        {
            "buffer" : 0, 
            "byteLength" : 768, 
            "byteOffset" : 1140, 
            "target" : 34962
        }, 
        {
            "buffer" : 0, 
            "byteLength" : 96, 
            "byteOffset" : 1908, 
            "target" : 34963
        }, 
        {
            "buffer" : 0, 
            "byteLength" : 396, 
            "byteOffset" : 2004, 
            "target" : 34962
        }, 
        {
            "buffer" : 0, 
            "byteLength" : 396, 
            "byteOffset" : 2400, 
            "target" : 34962
        }
    ], 
    "buffers" : [
        {
            "byteLength" : 2796, 
            "uri" : "data:application/octet-stream;base64,"
        }
    ], 
    "materials" : [
        {
            "name" : "Material.002", 
            "pbrMetallicRoughness" : {
                "baseColorFactor" : [
                    1.0, 
                    0.0, 
                    0.0, 
                    1.0
                ]
            }
        }
    ], 
    "meshes" : [
        {
            "name" : "Cylinder", 
            "primitives" : [
                {
                    "attributes" : {
                        "NORMAL" : 2, 
                        "POSITION" : 1
                    }, 
                    "indices" : 0, 
                    "material" : 0
                }
            ]
        }, 
        {
            "name" : "Cone", 
            "primitives" : [
                {
                    "attributes" : {
                        "NORMAL" : 5, 
                        "POSITION" : 4
                    }, 
                    "indices" : 3, 
                    "material" : 0
                }
            ]
        }
    ], 
    "nodes" : [
        {
            "mesh" : 1, 
            "name" : "Cone", 
            "translation" : [
                0.0, 
                3.0, 
                -0.0
            ]
        }, 
        {
            "mesh" : 0, 
            "name" : "Cylinder", 
            "translation" : [
                0.0, 
                -1.0, 
                -0.0
            ]
        }
    ], 
    "scene" : 0, 
    "scenes" : [
        {
            "name" : "Scene", 
            "nodes" : [
                0, 
                1
            ]
        }
    ]
}
