{
    "accessors" : [
        {
            "bufferView" : 0, 
            "componentType" : 5123, 
            "count" : 954, 
            "max" : [
                451
            ], 
            "min" : [
                0
            ], 
            "type" : "SCALAR"
        }, 
        {
            "bufferView" : 1, 
            "componentType" : 5126, 
            "count" : 452, 
            "max" : [
                1.0, 
                1.0, 
                1.0181516074680985e-07
            ], 
            "min" : [
                -1.0, 
                -1.0, 
                -0.25000008940696716
            ], 
            "type" : "VEC3"
        }, 
        {
            "bufferView" : 2, 
            "componentType" : 5126, 
            "count" : 452, 
            "max" : [
                0.9951850771903992, 
                0.9951847791671753, 
                5.005572916161327e-07
            ], 
            "min" : [
                -0.9951847195625305, 
                -0.9951847791671753, 
                -1.0
            ], 
            "type" : "VEC3"
        }
    ], 
    "asset" : {
        "generator" : "Khronos Blender glTF 2.0 exporter", 
        "version" : "2.0"
    }, 
    "bufferViews" : [
        {
            "buffer" : 0, 
            "byteLength" : 1908, 
            "byteOffset" : 0, 
            "target" : 34963
        }, 
        {
            "buffer" : 0, 
            "byteLength" : 5424, 
            "byteOffset" : 1908, 
            "target" : 34962
        }, 
        {
            "buffer" : 0, 
            "byteLength" : 5424, 
            "byteOffset" : 7332, 
            "target" : 34962
        }
    ], 
    "buffers" : [
        {
            "byteLength" : 12756, 
            "uri" : "data:application/octet-stream;base64,"
        }
    ], 
    "materials" : [
        {
            "emissiveFactor" : [
                0.003112147795036435, 
                0.003112147795036435, 
                0.003112147795036435
            ], 
            "name" : "Material.001", 
            "pbrMetallicRoughness" : {
                "baseColorFactor" : [
                    255.0, 
                    215.0, 
                    0.0, 
                    1.0
                ]
            }
        }
    ], 
    "meshes" : [
        {
            "name" : "Cylinder", 
            "primitives" : [
                {
                    "attributes" : {
                        "NORMAL" : 2, 
                        "POSITION" : 1
                    }, 
                    "indices" : 0, 
                    "material" : 0
                }
            ]
        }
    ], 
    "nodes" : [
        {
            "mesh" : 0, 
            "name" : "Cylinder"
        }
    ], 
    "scene" : 0, 
    "scenes" : [
        {
            "name" : "Scene", 
            "nodes" : [
                0
            ]
        }
    ]
}
